# xmcd
#
# Track frame offsets:
#	150
#	24900
#	38175
#	53625
#	68100
#	90675
#	109800
#	127875
#	143925
#	162750
#	182625
#	197550
#	210300
#	221400
#	243375
#
# Disc length: 3432 seconds
#
# Revision: 2
# Processed by: cddbd v1.5.2PL0 Copyright (c) Steve Scherf et al.
# Submitted via: audiograbber 1.83.01
#
DISCID=c70d660f
DTITLE=DK KARAOKE - DKM3063
DYEAR=1900
DGENRE=Karaoke
TTITLE0=C&C Music Factory - Things That Make You You Go Hmmm
TTITLE1=Isley Brothers - It's Your Thing
TTITLE2=Isley Brothers - That Lady
TTITLE3=Isley Brothers - This Old Heart Of Mine
TTITLE4=Michael Jackson - Way You Make Me Feel
TTITLE5=Michael Jackson - Bad
TTITLE6=Prince - When Doves Cry
TTITLE7=Prince - Little Red Corvette
TTITLE8=Prince - Purple Rain
TTITLE9=Prince - Let's Go Crazy
TTITLE10=Sly and The Family Stone - Family Affair
TTITLE11=Sly and The Family Stone - Hot Fun In The Summertime
TTITLE12=Sly and The Family Stone - Everyday People
TTITLE13=Sly and The Family Stone - Thank You (Falletin Me Be Mice Elf Again)
TTITLE14=Sly and The Family Stone - Dance To The Music
EXTD=
EXTT0=
EXTT1=
EXTT2=
EXTT3=
EXTT4=
EXTT5=
EXTT6=
EXTT7=
EXTT8=
EXTT9=
EXTT10=
EXTT11=
EXTT12=
EXTT13=
EXTT14=
PLAYORDER=
